<?xml version="1.0" encoding="utf-8"?>
<!-- Generator: Adobe Illustrator 22.1.0, SVG Export Plug-In . SVG Version: 6.00 Build 0)  -->
<svg version="1.1" id="Layer_1" xmlns="http://www.w3.org/2000/svg" xmlns:xlink="http://www.w3.org/1999/xlink" x="0px" y="0px"
	 viewBox="0 0 166.1 71.9" style="enable-background:new 0 0 166.1 71.9;" xml:space="preserve">
<style type="text/css">
	.st0{fill:#FFFFFF;}
</style>
<title>local</title>
<g>
	<path class="st0" d="M127,46.7c-3.5,0-4.8,1.8-4.9,5.3h9c0-0.2,0-0.4,0-0.8C131.1,48.1,130.3,46.7,127,46.7z"/>
	<path class="st0" d="M87,21.7c0-3.1-0.9-4.5-4.1-4.5c-3.5,0-4.8,1.8-4.9,5.3h9C87,22.3,87,22,87,21.7z"/>
	<path class="st0" d="M68.5,55c-0.6,0.5-0.9,1.2-0.9,2.1c0,2,0.9,3.2,3.7,3.2c1.6,0,2.8-0.3,3.6-1c0.3-0.3,0.5-0.5,0.6-0.7
		c0.1-0.3,0.2-0.7,0.2-1.2v-3.1c-1-0.1-2.1-0.1-3.2-0.1C70.6,54.2,69.3,54.5,68.5,55z"/>
	<path class="st0" d="M54.2,46.7c-3.5,0-4.8,1.8-4.9,5.3h9c0-0.2,0-0.4,0-0.8C58.3,48.1,57.4,46.7,54.2,46.7z"/>
	<path class="st0" d="M0-0.1v71.9h166.1V-0.1H0z M93.3,31c0-0.5,0.3-0.8,0.8-0.8h1.6V17.8H94c-0.5,0-0.7-0.3-0.7-0.8v-1.2
		c0-0.5,0.3-0.8,0.8-0.8H98c0.5,0,0.8,0.3,0.8,0.9l0,0.9c0.2-0.6,0.8-1.2,1.7-1.6c1-0.4,2-0.6,3-0.6c0.6,0,1.1,0,1.5,0.1
		c0.3,0.1,0.5,0.3,0.5,0.6c0,0.7-0.1,1.3-0.2,1.8c-0.1,0.3-0.3,0.5-0.6,0.5c-0.2,0-1.4-0.1-1.9-0.1c-1.5,0-2.6,0.2-3.2,0.6
		c-0.3,0.2-0.5,0.4-0.6,0.7c-0.1,0.3-0.1,0.6-0.1,1v10.2h2.4c0.5,0,0.8,0.3,0.8,0.8v1.2c0,0.6-0.2,0.7-0.7,0.7H94
		c-0.5,0-0.7-0.3-0.7-0.8V31z M44.9,7C46.3,7,47,7.7,47,9.2c0,1.5-0.7,2.2-2.1,2.2s-2.1-0.7-2.1-2.1C42.8,7.8,43.5,7,44.9,7z
		 M41.2,31c0-0.5,0.3-0.8,0.8-0.8h1.6V17.8h-1.7c-0.5,0-0.7-0.3-0.7-0.8v-1.2c0-0.5,0.3-0.8,0.8-0.8h4.1c0.5,0,0.8,0.3,0.8,0.9v14.3
		h1.7c0.5,0,0.8,0.3,0.8,0.8v1.3c0,0.6-0.2,0.7-0.8,0.7h-6.7c-0.5,0-0.7-0.3-0.7-0.8V31z M10.1,32.2V31c0-0.5,0.3-0.8,0.8-0.8h1.8
		V10.4h-1.8c-0.5,0-0.7-0.3-0.7-0.8V8.4c0-0.5,0.3-0.8,0.8-0.8h5.6c0.5,0,0.8,0.3,1.1,0.8c3.6,7.8,5.8,12.6,6.5,14.3
		c0.2-0.5,2.3-5.3,6.3-14.3c0.2-0.5,0.5-0.7,1-0.7h5.4c0.5,0,0.8,0.3,0.8,0.8v1.3c0,0.6-0.2,0.7-0.8,0.7h-1.6v19.8H37
		c0.5,0,0.8,0.3,0.8,0.8v1.3c0,0.6-0.2,0.7-0.8,0.7h-7c-0.5,0-0.7-0.3-0.7-0.8V31c0-0.5,0.3-0.8,0.8-0.8H32c0-9.9,0-16.2,0.1-18.7
		c-0.8,2.2-3,7.2-6.6,15.1c-0.2,0.5-0.5,0.7-1,0.7h-1c-0.5,0-0.8-0.3-1-0.8c-3.6-7.9-5.8-12.9-6.6-15c0.1,4,0.1,10.2,0.1,18.7h1.8
		c0.5,0,0.8,0.3,0.8,0.8v1.3c0,0.6-0.2,0.7-0.8,0.7h-7C10.4,33,10.1,32.7,10.1,32.2z M45.2,39.2c0,0.6-0.2,0.7-0.7,0.7H43l-5.7,21.8
		c-0.1,0.5-0.5,0.8-1,0.8h-1.7c-0.5,0-0.9-0.3-1-0.9L28.3,43c-1,3.6-2.8,9.8-5.6,18.8c-0.2,0.5-0.5,0.8-1,0.8h-1.7
		c-0.5,0-0.9-0.3-1-0.9l-5.6-21.8h-1.5c-0.5,0-0.7-0.3-0.7-0.8v-1.2c0-0.5,0.3-0.8,0.8-0.8h6.9c0.5,0,0.8,0.3,0.8,0.8v1.3
		c0,0.6-0.2,0.7-0.8,0.7h-2c1.3,4.8,2.7,10.6,4.3,17.5c1.4-5.2,3.2-11.4,5.4-18.5c0.2-0.7,0.5-1,1-1h1.5c0.5,0,0.8,0.3,1,1
		c2.8,9,4.6,15.2,5.4,18.5c1.1-5.1,2.5-10.9,4.2-17.5h-2.1c-0.5,0-0.7-0.3-0.7-0.8v-1.2c0-0.5,0.3-0.8,0.8-0.8h6.7
		c0.5,0,0.8,0.3,0.8,0.8V39.2z M61.1,54.2c-0.2,0.1-0.4,0.2-0.8,0.2H49.2c0,2.3,0.5,3.8,1.3,4.6c0.8,0.8,2.2,1.2,4,1.2
		c1.5,0,3.1-0.3,4.7-0.8c0.4-0.1,0.7-0.2,0.9-0.2c0.3,0,0.5,0.1,0.6,0.4c0.3,0.6,0.4,1.1,0.4,1.4c0,0.3-0.2,0.6-0.6,0.8
		c-1.6,0.8-3.7,1.2-6.2,1.2c-3.1,0-5.2-0.7-6.4-2.2S46,56.9,46,53.6c0-6.7,2.7-9.5,8.3-9.5c3.1,0,5,0.8,6,2.6c1,1.8,1.2,3.5,1.2,6.5
		C61.4,53.7,61.3,54.1,61.1,54.2z M58.7,18.2c-0.4,0.2-0.6,0.4-0.7,0.6c-0.1,0.2-0.2,0.5-0.2,1v10.3h1.7c0.5,0,0.8,0.3,0.8,0.8v1.2
		c0,0.6-0.2,0.7-0.8,0.7h-6.7c-0.5,0-0.7-0.3-0.7-0.8V31c0-0.5,0.3-0.8,0.8-0.8h1.6V17.8h-1.7c-0.5,0-0.7-0.3-0.7-0.8v-1.2
		c0-0.5,0.3-0.8,0.8-0.8h4c0.5,0,0.8,0.3,0.8,0.8l0,0.9c0.3-0.7,1.1-1.2,2.3-1.6c1.2-0.4,2.4-0.5,3.7-0.5c3.2,0,4.5,0.7,5,2.2
		c0.3,0.6,0.4,1.8,0.4,3.5v9.9h1.7c0.5,0,0.8,0.3,0.8,0.8v1.2c0,0.6-0.2,0.7-0.7,0.7h-4.2c-0.5,0-0.8-0.3-0.8-0.9V21
		c0-1-0.1-1.8-0.2-2.2c-0.3-0.9-1.1-1.3-3-1.3C60.9,17.5,59.6,17.7,58.7,18.2z M81.6,61.8c0,0.6-0.2,0.7-0.8,0.7h-4.2
		c-0.5,0-0.8-0.2-0.8-0.6l-0.1-1c-1,1.4-2.7,2.1-5.1,2.1c-4.1,0-6.2-1.9-6.2-5.8c0-2.1,0.8-3.5,2.2-4.4c1.2-0.7,3-1,5.4-1
		c1.6,0,2.8,0.1,3.6,0.2v-1.5c0-1-0.1-1.7-0.3-2.1c-0.4-0.9-1.6-1.4-3.7-1.4c-1.3,0-2.5,0.1-3.6,0.4c-0.6,0.1-1,0.2-1.3,0.2
		c-0.3,0-0.5-0.2-0.6-0.5c-0.2-0.5-0.3-1-0.3-1.3c0-0.4,0.2-0.7,0.6-0.8c1.7-0.5,3.6-0.8,5.7-0.8c2.7,0,4.5,0.5,5.4,1.4
		c0.8,0.8,1.1,2.3,1.1,4.5v9.8h1.9c0.5,0,0.8,0.3,0.8,0.8V61.8z M76.5,31.3c-1.3-1.5-1.9-3.9-1.9-7.2c0-6.7,2.7-9.5,8.3-9.5
		c3.1,0,5,0.8,6,2.6c1,1.8,1.2,3.5,1.2,6.5c0,0.6-0.1,1-0.3,1.1c-0.2,0.1-0.4,0.2-0.8,0.2H77.9c0,2.3,0.5,3.8,1.3,4.6
		c0.8,0.8,2.2,1.2,4,1.2c1.5,0,3.1-0.3,4.7-0.8c0.4-0.1,0.7-0.2,0.9-0.2c0.3,0,0.5,0.1,0.6,0.4c0.3,0.6,0.4,1.1,0.4,1.4
		c0,0.3-0.2,0.6-0.6,0.8c-1.6,0.8-3.7,1.2-6.2,1.2C79.9,33.5,77.8,32.7,76.5,31.3z M93.8,62.5c-0.8,0.2-1.9,0.3-3.2,0.3
		c-1.6,0-2.7-0.4-3.4-1.3c-0.6-0.8-0.9-2.1-0.9-4V47.3h-1.9c-0.4,0-0.6-0.2-0.6-0.7v-1.3c0-0.5,0.3-0.8,0.8-0.8h1.9l0.1-4
		c0-0.6,0.3-0.9,0.7-0.9h1.7c0.4,0,0.6,0.3,0.6,0.9v4h3.5c0.5,0,0.8,0.2,0.8,0.6v1.5c0,0.5-0.3,0.7-0.8,0.7h-3.5v9.5
		c0,1.2,0.1,2.1,0.4,2.5c0.2,0.5,0.8,0.7,1.7,0.7c0.3,0,0.7,0,1.3-0.1s0.8-0.1,0.9-0.1c0.3,0,0.5,0.2,0.6,0.5c0.1,0.5,0.1,1,0.1,1.3
		C94.5,62.1,94.3,62.4,93.8,62.5z M115.7,61.8c0,0.6-0.2,0.7-0.8,0.7h-4.2c-0.5,0-0.8-0.3-0.8-0.9V50.5c0-1-0.1-1.8-0.2-2.2
		c-0.3-1-1-1.3-3-1.3c-1.7,0-3,0.3-4,0.8c-0.3,0.2-0.5,0.4-0.7,0.6c-0.1,0.2-0.2,0.5-0.2,1v10.4h1.7c0.5,0,0.8,0.3,0.8,0.8v1.2
		c0,0.6-0.2,0.7-0.8,0.7h-6.7c-0.5,0-0.7-0.3-0.7-0.8v-1.2c0-0.5,0.3-0.8,0.8-0.8h1.6V38.3H97c-0.5,0-0.7-0.3-0.7-0.8v-1.2
		c0-0.5,0.3-0.8,0.8-0.8h4c0.5,0,0.8,0.3,0.8,1v9.7c0.3-0.7,1.1-1.2,2.2-1.6c1.2-0.4,2.4-0.5,3.7-0.5c3.3,0,4.5,0.7,5.1,2.2
		c0.2,0.6,0.3,1.8,0.3,3.5v9.9h1.7c0.5,0,0.8,0.3,0.8,0.8V61.8z M133.9,54.2c-0.2,0.1-0.4,0.2-0.8,0.2h-11.1c0,2.3,0.5,3.8,1.3,4.6
		s2.2,1.2,4,1.2c1.5,0,3.1-0.3,4.7-0.8c0.4-0.1,0.7-0.2,0.9-0.2c0.3,0,0.5,0.1,0.6,0.4c0.3,0.6,0.4,1.1,0.4,1.4
		c0,0.3-0.2,0.6-0.6,0.8c-1.6,0.8-3.7,1.2-6.2,1.2c-3.1,0-5.2-0.7-6.4-2.2s-1.9-3.9-1.9-7.2c0-6.7,2.7-9.5,8.3-9.5
		c3.1,0,5,0.8,6,2.6c1,1.8,1.2,3.5,1.2,6.5C134.3,53.7,134.2,54.1,133.9,54.2z M149.6,46.7c-0.1,0.3-0.3,0.5-0.6,0.5
		c-0.2,0-1.4-0.1-1.9-0.1c-1.5,0-2.6,0.2-3.2,0.6c-0.3,0.2-0.5,0.4-0.6,0.7c-0.1,0.3-0.1,0.6-0.1,1v10.2h2.4c0.5,0,0.8,0.3,0.8,0.8
		v1.2c0,0.6-0.2,0.7-0.7,0.7h-7.3c-0.5,0-0.7-0.3-0.7-0.8v-1.2c0-0.5,0.3-0.8,0.8-0.8h1.6V47.3h-1.7c-0.5,0-0.7-0.3-0.7-0.8v-1.2
		c0-0.5,0.3-0.8,0.8-0.8h3.9c0.5,0,0.8,0.3,0.8,0.9l0,0.9c0.2-0.6,0.8-1.2,1.7-1.6c1-0.4,2-0.6,3-0.6c0.6,0,1.1,0,1.5,0.1
		c0.3,0.1,0.5,0.3,0.5,0.6C149.8,45.6,149.7,46.2,149.6,46.7z"/>
</g>
</svg>
