<?xml version="1.0" encoding="utf-8"?>
<!-- Generator: Adobe Illustrator 22.1.0, SVG Export Plug-In . SVG Version: 6.00 Build 0)  -->
<svg version="1.1" id="Layer_1" xmlns="http://www.w3.org/2000/svg" xmlns:xlink="http://www.w3.org/1999/xlink" x="0px" y="0px"
	 viewBox="0 0 165.6 254.2" style="enable-background:new 0 0 165.6 254.2;" xml:space="preserve">
<style type="text/css">
	.st0{fill:#FFFFFF;}
</style>
<title>local-white-box-logo_1</title>
<g>
	<path class="st0" d="M126.3,149.4c-3.5,0-4.8,1.8-4.9,5.3h9c0-0.2,0-0.4,0-0.8C130.4,150.8,129.6,149.4,126.3,149.4z"/>
	<path class="st0" d="M67.8,157.7c-0.6,0.5-0.9,1.2-0.9,2.1c0,2,0.9,3.2,3.7,3.2c1.6,0,2.8-0.3,3.6-1c0.3-0.3,0.5-0.5,0.6-0.7
		c0.1-0.3,0.2-0.7,0.2-1.2V157c-1-0.1-2.1-0.1-3.2-0.1C69.9,156.9,68.6,157.2,67.8,157.7z"/>
	<path class="st0" d="M53.5,149.4c-3.5,0-4.8,1.8-4.9,5.3h9c0-0.2,0-0.4,0-0.8C57.6,150.8,56.8,149.4,53.5,149.4z"/>
	<path class="st0" d="M0,0v254.2h165.6V0H0z M84.4,103.5c3.1,0,5,0.8,6,2.6c1,1.8,1.2,3.5,1.2,6.5c0,0.6-0.1,1-0.3,1.1
		c-0.2,0.1-0.4,0.2-0.8,0.2H79.4c0,2.3,0.5,3.8,1.3,4.6c0.8,0.8,2.2,1.2,4,1.2c1.5,0,3.1-0.3,4.7-0.8c0.4-0.1,0.7-0.2,0.9-0.2
		c0.3,0,0.5,0.1,0.6,0.4c0.3,0.6,0.4,1.1,0.4,1.4c0,0.3-0.2,0.6-0.6,0.8c-1.6,0.8-3.7,1.2-6.2,1.2c-3.1,0-5.2-0.7-6.4-2.2
		c-1.3-1.5-1.9-3.9-1.9-7.2C76.1,106.3,78.7,103.5,84.4,103.5z M46.3,96c1.4,0,2.1,0.7,2.1,2.2c0,1.5-0.7,2.2-2.1,2.2
		s-2.1-0.7-2.1-2.1C44.2,96.8,44.9,96,46.3,96z M42.6,120c0-0.5,0.3-0.8,0.8-0.8H45v-12.4h-1.7c-0.5,0-0.7-0.3-0.7-0.8v-1.2
		c0-0.5,0.3-0.8,0.8-0.8h4.1c0.5,0,0.8,0.3,0.8,0.9v14.3h1.7c0.5,0,0.8,0.3,0.8,0.8v1.3c0,0.6-0.2,0.7-0.8,0.7h-6.7
		c-0.5,0-0.7-0.3-0.7-0.8V120z M11.5,120c0-0.5,0.3-0.8,0.8-0.8h1.8V99.4h-1.8c-0.5,0-0.7-0.3-0.7-0.8v-1.2c0-0.5,0.3-0.8,0.8-0.8
		h5.6c0.5,0,0.8,0.3,1.1,0.8c3.6,7.8,5.8,12.6,6.5,14.3c0.2-0.5,2.3-5.3,6.3-14.3c0.2-0.5,0.5-0.7,1-0.7h5.4c0.5,0,0.8,0.3,0.8,0.8
		v1.3c0,0.6-0.2,0.7-0.8,0.7h-1.6v19.8h1.7c0.5,0,0.8,0.3,0.8,0.8v1.3c0,0.6-0.2,0.7-0.8,0.7h-7c-0.5,0-0.7-0.3-0.7-0.8V120
		c0-0.5,0.3-0.8,0.8-0.8h1.9c0-9.9,0-16.2,0.1-18.7c-0.8,2.2-3,7.2-6.6,15.1c-0.2,0.5-0.5,0.7-1,0.7h-1c-0.5,0-0.8-0.3-1-0.8
		c-3.6-7.9-5.8-12.9-6.6-15c0.1,4,0.1,10.2,0.1,18.7h1.8c0.5,0,0.8,0.3,0.8,0.8v1.3c0,0.6-0.2,0.7-0.8,0.7h-7
		c-0.5,0-0.7-0.3-0.7-0.8V120z M44.5,141.9c0,0.6-0.2,0.7-0.7,0.7h-1.4l-5.7,21.8c-0.1,0.5-0.5,0.8-1,0.8h-1.7c-0.5,0-0.9-0.3-1-0.9
		l-5.3-18.7c-1,3.6-2.8,9.8-5.6,18.8c-0.2,0.5-0.5,0.8-1,0.8h-1.7c-0.5,0-0.9-0.3-1-0.9l-5.6-21.8H11c-0.5,0-0.7-0.3-0.7-0.8v-1.2
		c0-0.5,0.3-0.8,0.8-0.8h6.9c0.5,0,0.8,0.3,0.8,0.8v1.3c0,0.6-0.2,0.7-0.8,0.7h-2c1.3,4.8,2.7,10.6,4.3,17.5
		c1.4-5.2,3.2-11.4,5.4-18.5c0.2-0.7,0.5-1,1-1h1.5c0.5,0,0.8,0.3,1,1c2.8,9,4.6,15.2,5.4,18.5c1.1-5.1,2.5-10.9,4.2-17.5h-2.1
		c-0.5,0-0.7-0.3-0.7-0.8v-1.2c0-0.5,0.3-0.8,0.8-0.8h6.7c0.5,0,0.8,0.3,0.8,0.8V141.9z M60.4,156.9c-0.2,0.1-0.4,0.2-0.8,0.2H48.5
		c0,2.3,0.5,3.8,1.3,4.6c0.8,0.8,2.2,1.2,4,1.2c1.5,0,3.1-0.3,4.7-0.8c0.4-0.1,0.7-0.2,0.9-0.2c0.3,0,0.5,0.1,0.6,0.4
		c0.3,0.6,0.4,1.1,0.4,1.4c0,0.3-0.2,0.6-0.6,0.8c-1.6,0.8-3.7,1.2-6.2,1.2c-3.1,0-5.2-0.7-6.4-2.2s-1.9-3.9-1.9-7.2
		c0-6.7,2.7-9.5,8.3-9.5c3.1,0,5,0.8,6,2.6c1,1.8,1.2,3.5,1.2,6.5C60.7,156.4,60.6,156.8,60.4,156.9z M61.7,121.3
		c0,0.6-0.2,0.7-0.8,0.7h-6.7c-0.5,0-0.7-0.3-0.7-0.8V120c0-0.5,0.3-0.8,0.8-0.8H56v-12.4h-1.7c-0.5,0-0.7-0.3-0.7-0.8v-1.2
		c0-0.5,0.3-0.8,0.8-0.8h4c0.5,0,0.8,0.3,0.8,0.8l0,0.9c0.3-0.7,1.1-1.2,2.3-1.6c1.2-0.4,2.4-0.5,3.7-0.5c3.2,0,4.5,0.7,5,2.2
		c0.3,0.6,0.4,1.8,0.4,3.5v9.9h1.7c0.5,0,0.8,0.3,0.8,0.8v1.2c0,0.6-0.2,0.7-0.7,0.7h-4.2c-0.5,0-0.8-0.3-0.8-0.9V110
		c0-1-0.1-1.8-0.2-2.2c-0.3-0.9-1.1-1.3-3-1.3c-1.8,0-3.1,0.3-4,0.8c-0.4,0.2-0.6,0.4-0.7,0.6c-0.1,0.2-0.2,0.5-0.2,1v10.3h1.7
		c0.5,0,0.8,0.3,0.8,0.8V121.3z M80.9,164.5c0,0.6-0.2,0.7-0.8,0.7H76c-0.5,0-0.8-0.2-0.8-0.6l-0.1-1c-1,1.4-2.7,2.1-5.1,2.1
		c-4.1,0-6.2-1.9-6.2-5.8c0-2.1,0.8-3.5,2.2-4.4c1.2-0.7,3-1,5.4-1c1.6,0,2.8,0.1,3.6,0.2v-1.5c0-1-0.1-1.7-0.3-2.1
		c-0.4-0.9-1.6-1.4-3.7-1.4c-1.3,0-2.5,0.1-3.6,0.4c-0.6,0.1-1,0.2-1.3,0.2c-0.3,0-0.5-0.2-0.6-0.5c-0.2-0.5-0.3-1-0.3-1.3
		c0-0.4,0.2-0.7,0.6-0.8c1.7-0.5,3.6-0.8,5.7-0.8c2.7,0,4.5,0.5,5.4,1.4c0.8,0.8,1.1,2.3,1.1,4.5v9.8h1.9c0.5,0,0.8,0.3,0.8,0.8
		V164.5z M93.1,165.2c-0.8,0.2-1.9,0.3-3.2,0.3c-1.6,0-2.7-0.4-3.4-1.3c-0.6-0.8-0.9-2.1-0.9-4V150h-1.9c-0.4,0-0.6-0.2-0.6-0.7V148
		c0-0.5,0.3-0.8,0.8-0.8h1.9l0.1-4c0-0.6,0.3-0.9,0.7-0.9h1.7c0.4,0,0.6,0.3,0.6,0.9v4h3.5c0.5,0,0.8,0.2,0.8,0.6v1.5
		c0,0.5-0.3,0.7-0.8,0.7h-3.5v9.5c0,1.2,0.1,2.1,0.4,2.5c0.2,0.5,0.8,0.7,1.7,0.7c0.3,0,0.7,0,1.3-0.1s0.8-0.1,0.9-0.1
		c0.3,0,0.5,0.2,0.6,0.5c0.1,0.5,0.1,1,0.1,1.3C93.8,164.8,93.6,165.1,93.1,165.2z M94.7,121.2V120c0-0.5,0.3-0.8,0.8-0.8h1.6v-12.4
		h-1.7c-0.5,0-0.7-0.3-0.7-0.8v-1.2c0-0.5,0.3-0.8,0.8-0.8h3.9c0.5,0,0.8,0.3,0.8,0.9l0,0.9c0.2-0.6,0.8-1.2,1.7-1.6
		c1-0.4,2-0.6,3-0.6c0.6,0,1.1,0,1.5,0.1c0.3,0.1,0.5,0.3,0.5,0.6c0,0.7-0.1,1.3-0.2,1.8c-0.1,0.3-0.3,0.5-0.6,0.5
		c-0.2,0-1.4-0.1-1.9-0.1c-1.5,0-2.6,0.2-3.2,0.6c-0.3,0.2-0.5,0.4-0.6,0.7c-0.1,0.3-0.1,0.6-0.1,1v10.2h2.4c0.5,0,0.8,0.3,0.8,0.8
		v1.2c0,0.6-0.2,0.7-0.7,0.7h-7.3C94.9,122,94.7,121.7,94.7,121.2z M115,164.5c0,0.6-0.2,0.7-0.8,0.7h-4.2c-0.5,0-0.8-0.3-0.8-0.9
		v-11.2c0-1-0.1-1.8-0.2-2.2c-0.3-1-1-1.3-3-1.3c-1.7,0-3,0.3-4,0.8c-0.3,0.2-0.5,0.4-0.7,0.6c-0.1,0.2-0.2,0.5-0.2,1v10.4h1.7
		c0.5,0,0.8,0.3,0.8,0.8v1.2c0,0.6-0.2,0.7-0.8,0.7h-6.7c-0.5,0-0.7-0.3-0.7-0.8v-1.2c0-0.5,0.3-0.8,0.8-0.8H98V141h-1.7
		c-0.5,0-0.7-0.3-0.7-0.8v-1.2c0-0.5,0.3-0.8,0.8-0.8h4c0.5,0,0.8,0.3,0.8,1v9.7c0.3-0.7,1.1-1.2,2.2-1.6c1.2-0.4,2.4-0.5,3.7-0.5
		c3.3,0,4.5,0.7,5.1,2.2c0.2,0.6,0.3,1.8,0.3,3.5v9.9h1.7c0.5,0,0.8,0.3,0.8,0.8V164.5z M133.3,156.9c-0.2,0.1-0.4,0.2-0.8,0.2
		h-11.1c0,2.3,0.5,3.8,1.3,4.6c0.8,0.8,2.2,1.2,4,1.2c1.5,0,3.1-0.3,4.7-0.8c0.4-0.1,0.7-0.2,0.9-0.2c0.3,0,0.5,0.1,0.6,0.4
		c0.3,0.6,0.4,1.1,0.4,1.4c0,0.3-0.2,0.6-0.6,0.8c-1.6,0.8-3.7,1.2-6.2,1.2c-3.1,0-5.2-0.7-6.4-2.2s-1.9-3.9-1.9-7.2
		c0-6.7,2.7-9.5,8.3-9.5c3.1,0,5,0.8,6,2.6c1,1.8,1.2,3.5,1.2,6.5C133.6,156.4,133.5,156.8,133.3,156.9z M148.9,149.4
		c-0.1,0.3-0.3,0.5-0.6,0.5c-0.2,0-1.4-0.1-1.9-0.1c-1.5,0-2.6,0.2-3.2,0.6c-0.3,0.2-0.5,0.4-0.6,0.7s-0.1,0.6-0.1,1v10.2h2.4
		c0.5,0,0.8,0.3,0.8,0.8v1.2c0,0.6-0.2,0.7-0.7,0.7h-7.3c-0.5,0-0.7-0.3-0.7-0.8v-1.2c0-0.5,0.3-0.8,0.8-0.8h1.6V150h-1.7
		c-0.5,0-0.7-0.3-0.7-0.8V148c0-0.5,0.3-0.8,0.8-0.8h3.9c0.5,0,0.8,0.3,0.8,0.9l0,0.9c0.2-0.6,0.8-1.2,1.7-1.6c1-0.4,2-0.6,3-0.6
		c0.6,0,1.1,0,1.5,0.1c0.3,0.1,0.5,0.3,0.5,0.6C149.1,148.3,149,148.9,148.9,149.4z"/>
	<path class="st0" d="M88.4,110.7c0-3.1-0.9-4.5-4.1-4.5c-3.5,0-4.8,1.8-4.9,5.3h9C88.4,111.3,88.4,111,88.4,110.7z"/>
</g>
</svg>
